<svg xmlns="http://www.w3.org/2000/svg" xmlns:xlink="http://www.w3.org/1999/xlink" version="1.1" x="0px" y="0px" viewBox="0 0 100 125" style="enable-background:new 0 0 100 100;" xml:space="preserve"><g><g><g><path d="M79.7,80c-1.5,0-3-0.1-4.7-0.4c-0.5-0.1-0.9-0.6-0.8-1.2s0.6-0.9,1.2-0.8c12.4,2.1,19.6-5.3,21.9-8.3     c-9.5-1.9-12.6-9.9-14.2-15.9c-0.1-0.5,0.2-1.1,0.7-1.2c0.5-0.1,1.1,0.2,1.2,0.7c2.4,9.3,6.8,13.8,14.1,14.7     c0.3,0,0.6,0.2,0.8,0.5c0.2,0.3,0.1,0.7,0,0.9C99.8,69.1,93.3,80,79.7,80z"/></g><g><path d="M20.3,80C6.7,80,0.2,69.1,0.1,69c-0.2-0.3-0.2-0.6,0-0.9c0.1-0.3,0.4-0.5,0.8-0.5C13.6,66,15.2,53.8,17,40.9     c0.8-6.1,1.7-12.4,3.9-17.3C25.7,12.8,36.9,6.1,50,6.1c13.1,0,24.3,6.7,29.1,17.6c2.1,4.6,2.9,10.5,3.7,16.7     c0.1,0.8,0.2,1.7,0.3,2.5c0.1,0.5-0.3,1-0.8,1.1c-0.5,0.1-1.1-0.3-1.1-0.8c-0.1-0.8-0.2-1.7-0.3-2.5c-0.8-6.1-1.6-11.8-3.6-16.2     C72.8,14.3,62.3,8,50,8c-12.3,0-22.8,6.3-27.3,16.4C20.6,29,19.8,34.9,19,41.2c-1.7,12.6-3.5,25.6-16.3,28.1     C5,72.3,12,79.7,24.6,77.6c0.5-0.1,1.1,0.3,1.2,0.8s-0.3,1.1-0.8,1.2C23.3,79.8,21.8,80,20.3,80z"/></g><g><path d="M32,74.3c-0.4,0-0.8-0.2-0.9-0.6c-4-9.7-4.9-22.1-5.1-26.9c-0.3-6.4,3.1-12.2,8.7-15.1c6.7-3.4,14.9-2.2,21.9,3.3     c0.5,0.4,1.2,1,2,1.7c1.7,1.5,4,3.5,6.7,5.3c0.5,0.3,0.6,0.9,0.3,1.4c-0.3,0.5-0.9,0.6-1.4,0.3c-2.8-1.8-5.1-3.9-6.9-5.4     c-0.7-0.6-1.4-1.2-1.9-1.6c-6.3-5-13.7-6.2-19.7-3.1c-5,2.6-7.9,7.5-7.6,13.2c0.2,4.8,1.1,16.8,5,26.3c0.2,0.5,0,1.1-0.5,1.3     C32.2,74.2,32.1,74.3,32,74.3z"/></g><g><path d="M50,88.1c-1.4,0-2.9-0.2-4.3-0.5c-0.5-0.1-0.9-0.7-0.7-1.2c0.1-0.5,0.7-0.9,1.2-0.7c1.2,0.3,2.5,0.5,3.8,0.5     c5.7,0,11.2-3.1,14.6-8.4c2.3-3.5,4-7.1,5.1-10.9c0.2-0.5,0.7-0.8,1.2-0.7c0.5,0.2,0.8,0.7,0.7,1.2c-1.2,4-3,7.8-5.4,11.4     C62.5,84.7,56.4,88.1,50,88.1z"/></g></g><g><path d="M73.1,63.3L73.1,63.3c-0.4,0-0.8-0.3-0.9-0.6l-3.7-9.6l-6.7-3.7c-0.3-0.2-0.5-0.5-0.5-0.9c0-0.4,0.2-0.7,0.5-0.9l6.7-3.7    l3.7-10c0.1-0.4,0.5-0.7,0.9-0.7s0.8,0.3,0.9,0.7l3.7,10l6.7,3.7c0.3,0.2,0.5,0.5,0.5,0.9c0,0.4-0.2,0.7-0.5,0.9l-6.7,3.7L74,62.7    C73.8,63.1,73.5,63.3,73.1,63.3z M64.3,48.6l5.4,3c0.2,0.1,0.4,0.3,0.5,0.5l2.9,7.5l2.9-7.5c0.1-0.2,0.2-0.4,0.5-0.5l5.4-3l-5.4-3    c-0.2-0.1-0.4-0.3-0.5-0.5l-2.9-7.9l-2.9,7.9c-0.1,0.2-0.2,0.4-0.5,0.5L64.3,48.6z"/></g><g><path d="M37.2,93.9c-0.4,0-0.8-0.3-0.9-0.6l-2.9-7.6l-5.3-2.9c-0.3-0.2-0.5-0.5-0.5-0.9c0-0.4,0.2-0.7,0.5-0.9l5.3-2.9l2.9-8    c0.1-0.4,0.5-0.7,0.9-0.7s0.8,0.3,0.9,0.7l2.9,8l5.3,2.9c0.3,0.2,0.5,0.5,0.5,0.9c0,0.4-0.2,0.7-0.5,0.9l-5.3,2.9l-2.9,7.6    C38,93.7,37.6,93.9,37.2,93.9z M30.6,82l4,2.2c0.2,0.1,0.4,0.3,0.5,0.5l2.1,5.5l2.1-5.5c0.1-0.2,0.2-0.4,0.5-0.5l4-2.2l-4-2.2    c-0.2-0.1-0.4-0.3-0.5-0.5l-2.1-5.8l-2.1,5.8c-0.1,0.2-0.2,0.4-0.5,0.5L30.6,82z"/></g></g><text x="0" y="115" fill="#000000" font-size="5px" font-weight="bold" font-family="'Helvetica Neue', Helvetica, Arial-Unicode, Arial, Sans-serif">Created by N.Style</text><text x="0" y="120" fill="#000000" font-size="5px" font-weight="bold" font-family="'Helvetica Neue', Helvetica, Arial-Unicode, Arial, Sans-serif">from the Noun Project</text></svg>